<svg width="128" height="128" viewBox="0 0 128 128" fill="none" xmlns="http://www.w3.org/2000/svg">
<g id="rocket">
<g id="rocketInner">
<path id="engine" d="M46 97.1719L64 94.125L82 97.1719L76 106.312H52L46 97.1719Z" fill="#7AD0CB"/>
<g id="wings">
<path id="Vector" d="M46 69.75L28 88.0312V106.312L46 97.1719L49 82.6078L46 69.75Z" fill="#4D91BB"/>
<path id="Vector_2" d="M82 69.75L100 88.0312V106.312L82 97.1719L79 80.3938L82 69.75Z" fill="#4D91BB"/>
</g>
<path id="rocketBody" d="M82 97.1719H46V39.5758L64 21L82 39.5758V97.1719Z" fill="#C3EDF5"/>
<path id="window" d="M64 67.2109C68.4183 67.2109 72 63.5733 72 59.0859C72 54.5986 68.4183 50.9609 64 50.9609C59.5817 50.9609 56 54.5986 56 59.0859C56 63.5733 59.5817 67.2109 64 67.2109Z" fill="#4D91BB"/>
<path id="windowShadow" d="M58 59.0859C58.0018 57.1082 58.7137 55.1991 60.0024 53.7164C61.2911 52.2337 63.068 51.2792 65 51.032C63.8702 50.8792 62.7213 50.9734 61.6303 51.3082C60.5392 51.643 59.5312 52.2107 58.6737 52.9733C57.8162 53.7359 57.1291 54.6757 56.6583 55.7299C56.1876 56.7842 55.944 57.9284 55.944 59.0859C55.944 60.2435 56.1876 61.3877 56.6583 62.4419C57.1291 63.4961 57.8162 64.436 58.6737 65.1986C59.5312 65.9612 60.5392 66.5289 61.6303 66.8637C62.7213 67.1985 63.8702 67.2926 65 67.1398C63.068 66.8926 61.2911 65.9382 60.0024 64.4555C58.7137 62.9728 58.0018 61.0637 58 59.0859Z" fill="#2175AA"/>
<g id="wingsShadow">
<path id="Vector_3" d="M82 69.75L83.91 98.1367L82 97.1719V69.75Z" fill="#2175AA"/>
<path id="Vector_4" d="M46 69.75L44.09 98.1367L46 97.1719V69.75Z" fill="#2175AA"/>
</g>
<path id="engineShadow" d="M46 97.1719L81.13 98.4922L82 97.1719H46Z" fill="#4DBAB4"/>
</g>
</g>
</svg>
